<?xml version="1.0" standalone="no"?>
<!DOCTYPE svg PUBLIC "-//W3C//DTD SVG 20010904//EN"
 "http://www.w3.org/TR/2001/REC-SVG-20010904/DTD/svg10.dtd">
<svg version="1.0" xmlns="http://www.w3.org/2000/svg"
 width="327.000000pt" height="327.000000pt" viewBox="0 0 327.000000 327.000000"
 preserveAspectRatio="xMidYMid meet">
<metadata>
Created by potrace 1.11, written by Peter Selinger 2001-2013
</metadata>
<g transform="translate(0.000000,327.000000) scale(0.100000,-0.100000)"
fill="#000000" stroke="none">
<path d="M1594 3252 c-16 -8 -126 -71 -244 -140 -118 -68 -231 -133 -250 -144
-19 -11 -192 -111 -385 -222 -192 -112 -380 -219 -418 -240 -37 -21 -71 -46
-76 -55 -15 -28 -13 -1614 2 -1634 11 -14 155 -100 430 -255 62 -36 542 -313
557 -322 59 -36 325 -189 369 -212 l53 -28 67 37 c36 20 106 61 155 90 49 29
90 53 92 53 2 0 37 20 77 45 41 25 80 45 86 45 6 0 11 3 11 8 0 4 10 12 23 18
12 6 65 35 117 65 52 31 115 67 140 81 310 177 608 351 626 367 l22 19 0 805
c0 599 -3 809 -11 821 -10 13 -85 57 -302 181 -22 12 -80 46 -130 75 -49 29
-110 64 -135 78 -25 14 -62 36 -82 49 -21 12 -39 23 -42 23 -2 0 -33 17 -67
38 -35 22 -84 50 -109 64 -25 14 -153 87 -285 164 -132 76 -244 139 -250 140
-6 1 -24 -5 -41 -14z"/>
</g>
</svg>
